<mxfile host="app.diagrams.net" agent="Mozilla/5.0 (Windows NT 10.0; Win64; x64) AppleWebKit/537.36 (KHTML, like Gecko) Chrome/137.0.0.0 Safari/537.36 OPR/121.0.0.0 (Edition std-2)" version="28.2.3">
  <diagram name="Страница — 1" id="ZNtmsmHwXxPTgBiL0821">
    <mxGraphModel dx="1628" dy="836" grid="1" gridSize="10" guides="1" tooltips="1" connect="1" arrows="1" fold="1" page="1" pageScale="1" pageWidth="827" pageHeight="1169" math="0" shadow="0">
      <root>
        <mxCell id="0" />
        <mxCell id="1" parent="0" />
        <mxCell id="NiQ9IAuzMEzP7QuWft3J-2" value="" style="rounded=0;whiteSpace=wrap;html=1;" vertex="1" parent="1">
          <mxGeometry x="120" y="40" width="120" height="40" as="geometry" />
        </mxCell>
        <mxCell id="NiQ9IAuzMEzP7QuWft3J-3" value="" style="rounded=0;whiteSpace=wrap;html=1;" vertex="1" parent="1">
          <mxGeometry x="120" y="120" width="120" height="60" as="geometry" />
        </mxCell>
        <mxCell id="NiQ9IAuzMEzP7QuWft3J-4" value="начало/конец" style="rounded=1;whiteSpace=wrap;html=1;" vertex="1" parent="1">
          <mxGeometry x="400" y="80" width="190" height="80" as="geometry" />
        </mxCell>
        <mxCell id="NiQ9IAuzMEzP7QuWft3J-5" value="действие/операция" style="rounded=0;whiteSpace=wrap;html=1;" vertex="1" parent="1">
          <mxGeometry x="405" y="200" width="180" height="80" as="geometry" />
        </mxCell>
        <mxCell id="NiQ9IAuzMEzP7QuWft3J-6" value="условие" style="rhombus;whiteSpace=wrap;html=1;" vertex="1" parent="1">
          <mxGeometry x="430" y="300" width="130" height="110" as="geometry" />
        </mxCell>
        <mxCell id="NiQ9IAuzMEzP7QuWft3J-7" style="edgeStyle=orthogonalEdgeStyle;rounded=0;orthogonalLoop=1;jettySize=auto;html=1;exitX=1;exitY=1;exitDx=0;exitDy=0;entryX=0.895;entryY=0.875;entryDx=0;entryDy=0;entryPerimeter=0;" edge="1" parent="1" source="NiQ9IAuzMEzP7QuWft3J-4" target="NiQ9IAuzMEzP7QuWft3J-4">
          <mxGeometry relative="1" as="geometry" />
        </mxCell>
        <mxCell id="NiQ9IAuzMEzP7QuWft3J-8" value="начало цыкла" style="shape=trapezoid;perimeter=trapezoidPerimeter;whiteSpace=wrap;html=1;fixedSize=1;" vertex="1" parent="1">
          <mxGeometry x="410" y="440" width="160" height="70" as="geometry" />
        </mxCell>
        <mxCell id="NiQ9IAuzMEzP7QuWft3J-9" value="" style="shape=trapezoid;perimeter=trapezoidPerimeter;whiteSpace=wrap;html=1;fixedSize=1;rotation=-180;flipV=0;flipH=1;" vertex="1" parent="1">
          <mxGeometry x="410" y="530" width="158" height="65" as="geometry" />
        </mxCell>
        <mxCell id="NiQ9IAuzMEzP7QuWft3J-11" value="" style="endArrow=classic;html=1;rounded=0;" edge="1" parent="1">
          <mxGeometry width="50" height="50" relative="1" as="geometry">
            <mxPoint x="220" y="510" as="sourcePoint" />
            <mxPoint x="220" y="410" as="targetPoint" />
            <Array as="points" />
          </mxGeometry>
        </mxCell>
        <mxCell id="NiQ9IAuzMEzP7QuWft3J-12" value="" style="endArrow=none;html=1;rounded=0;entryX=0;entryY=1;entryDx=0;entryDy=0;" edge="1" parent="1" target="NiQ9IAuzMEzP7QuWft3J-8">
          <mxGeometry width="50" height="50" relative="1" as="geometry">
            <mxPoint x="320" y="510" as="sourcePoint" />
            <mxPoint x="360" y="450" as="targetPoint" />
            <Array as="points">
              <mxPoint x="220" y="510" />
            </Array>
          </mxGeometry>
        </mxCell>
        <mxCell id="NiQ9IAuzMEzP7QuWft3J-14" value="конец цыкла" style="rounded=0;whiteSpace=wrap;html=1;" vertex="1" parent="1">
          <mxGeometry x="430" y="540" width="120" height="35" as="geometry" />
        </mxCell>
        <mxCell id="NiQ9IAuzMEzP7QuWft3J-15" value="я" style="endArrow=none;html=1;rounded=0;" edge="1" parent="1">
          <mxGeometry x="0.1429" y="-20" width="50" height="50" relative="1" as="geometry">
            <mxPoint x="640" y="510" as="sourcePoint" />
            <mxPoint x="640" y="440" as="targetPoint" />
            <Array as="points">
              <mxPoint x="640" y="480" />
            </Array>
            <mxPoint as="offset" />
          </mxGeometry>
        </mxCell>
        <mxCell id="NiQ9IAuzMEzP7QuWft3J-17" value="начало" style="rounded=1;whiteSpace=wrap;html=1;" vertex="1" parent="1">
          <mxGeometry x="827" y="80" width="120" height="60" as="geometry" />
        </mxCell>
        <mxCell id="NiQ9IAuzMEzP7QuWft3J-18" value="конец" style="rounded=1;whiteSpace=wrap;html=1;" vertex="1" parent="1">
          <mxGeometry x="827" y="640" width="120" height="60" as="geometry" />
        </mxCell>
        <mxCell id="NiQ9IAuzMEzP7QuWft3J-19" value="садимся в машину" style="rounded=0;whiteSpace=wrap;html=1;" vertex="1" parent="1">
          <mxGeometry x="827" y="160" width="120" height="60" as="geometry" />
        </mxCell>
        <mxCell id="NiQ9IAuzMEzP7QuWft3J-20" value="" style="endArrow=none;dashed=1;html=1;dashPattern=1 3;strokeWidth=2;rounded=0;" edge="1" parent="1" source="NiQ9IAuzMEzP7QuWft3J-19">
          <mxGeometry width="50" height="50" relative="1" as="geometry">
            <mxPoint x="887" y="139.28932188134524" as="sourcePoint" />
            <mxPoint x="887" y="140" as="targetPoint" />
          </mxGeometry>
        </mxCell>
        <mxCell id="NiQ9IAuzMEzP7QuWft3J-21" value="вставляем ключ зажигания" style="rounded=0;whiteSpace=wrap;html=1;" vertex="1" parent="1">
          <mxGeometry x="827" y="240" width="120" height="60" as="geometry" />
        </mxCell>
        <mxCell id="NiQ9IAuzMEzP7QuWft3J-22" value="запускаем двигатель машины" style="rounded=0;whiteSpace=wrap;html=1;" vertex="1" parent="1">
          <mxGeometry x="827" y="320" width="120" height="60" as="geometry" />
        </mxCell>
        <mxCell id="NiQ9IAuzMEzP7QuWft3J-23" value="" style="endArrow=none;dashed=1;html=1;dashPattern=1 3;strokeWidth=2;rounded=0;entryX=0.5;entryY=1;entryDx=0;entryDy=0;" edge="1" parent="1" target="NiQ9IAuzMEzP7QuWft3J-19">
          <mxGeometry width="50" height="50" relative="1" as="geometry">
            <mxPoint x="887" y="240" as="sourcePoint" />
            <mxPoint x="910" y="210" as="targetPoint" />
          </mxGeometry>
        </mxCell>
        <mxCell id="NiQ9IAuzMEzP7QuWft3J-24" value="поверка состояния машины/снимаем с тормоза" style="rounded=0;whiteSpace=wrap;html=1;" vertex="1" parent="1">
          <mxGeometry x="827" y="400" width="120" height="60" as="geometry" />
        </mxCell>
        <mxCell id="NiQ9IAuzMEzP7QuWft3J-25" value="" style="endArrow=none;dashed=1;html=1;dashPattern=1 3;strokeWidth=2;rounded=0;entryX=0.5;entryY=1;entryDx=0;entryDy=0;exitX=0.5;exitY=0;exitDx=0;exitDy=0;" edge="1" parent="1" source="NiQ9IAuzMEzP7QuWft3J-22" target="NiQ9IAuzMEzP7QuWft3J-21">
          <mxGeometry width="50" height="50" relative="1" as="geometry">
            <mxPoint x="870" y="350" as="sourcePoint" />
            <mxPoint x="920" y="300" as="targetPoint" />
          </mxGeometry>
        </mxCell>
        <mxCell id="NiQ9IAuzMEzP7QuWft3J-26" value="" style="endArrow=none;dashed=1;html=1;dashPattern=1 3;strokeWidth=2;rounded=0;entryX=0.5;entryY=1;entryDx=0;entryDy=0;exitX=0.5;exitY=0;exitDx=0;exitDy=0;" edge="1" parent="1" source="NiQ9IAuzMEzP7QuWft3J-24" target="NiQ9IAuzMEzP7QuWft3J-22">
          <mxGeometry width="50" height="50" relative="1" as="geometry">
            <mxPoint x="870" y="430" as="sourcePoint" />
            <mxPoint x="920" y="380" as="targetPoint" />
          </mxGeometry>
        </mxCell>
        <mxCell id="NiQ9IAuzMEzP7QuWft3J-27" value="начинаем движение" style="rounded=0;whiteSpace=wrap;html=1;" vertex="1" parent="1">
          <mxGeometry x="827" y="480" width="120" height="60" as="geometry" />
        </mxCell>
        <mxCell id="NiQ9IAuzMEzP7QuWft3J-28" value="" style="endArrow=none;dashed=1;html=1;dashPattern=1 3;strokeWidth=2;rounded=0;entryX=0.5;entryY=1;entryDx=0;entryDy=0;exitX=0.5;exitY=0;exitDx=0;exitDy=0;" edge="1" parent="1" source="NiQ9IAuzMEzP7QuWft3J-27" target="NiQ9IAuzMEzP7QuWft3J-24">
          <mxGeometry width="50" height="50" relative="1" as="geometry">
            <mxPoint x="870" y="500" as="sourcePoint" />
            <mxPoint x="920" y="450" as="targetPoint" />
          </mxGeometry>
        </mxCell>
        <mxCell id="NiQ9IAuzMEzP7QuWft3J-29" value="выключаем двигатель .закрываем машину" style="rounded=0;whiteSpace=wrap;html=1;" vertex="1" parent="1">
          <mxGeometry x="827" y="560" width="120" height="60" as="geometry" />
        </mxCell>
        <mxCell id="NiQ9IAuzMEzP7QuWft3J-31" value="" style="endArrow=none;dashed=1;html=1;dashPattern=1 3;strokeWidth=2;rounded=0;entryX=0.5;entryY=1;entryDx=0;entryDy=0;exitX=0.5;exitY=0;exitDx=0;exitDy=0;" edge="1" parent="1" source="NiQ9IAuzMEzP7QuWft3J-29" target="NiQ9IAuzMEzP7QuWft3J-27">
          <mxGeometry width="50" height="50" relative="1" as="geometry">
            <mxPoint x="860" y="580" as="sourcePoint" />
            <mxPoint x="910" y="530" as="targetPoint" />
          </mxGeometry>
        </mxCell>
        <mxCell id="NiQ9IAuzMEzP7QuWft3J-33" value="" style="endArrow=none;dashed=1;html=1;dashPattern=1 3;strokeWidth=2;rounded=0;entryX=0.5;entryY=1;entryDx=0;entryDy=0;exitX=0.5;exitY=0;exitDx=0;exitDy=0;" edge="1" parent="1" source="NiQ9IAuzMEzP7QuWft3J-18" target="NiQ9IAuzMEzP7QuWft3J-29">
          <mxGeometry width="50" height="50" relative="1" as="geometry">
            <mxPoint x="870" y="670" as="sourcePoint" />
            <mxPoint x="920" y="620" as="targetPoint" />
          </mxGeometry>
        </mxCell>
        <mxCell id="NiQ9IAuzMEzP7QuWft3J-34" value="начало" style="rounded=1;whiteSpace=wrap;html=1;" vertex="1" parent="1">
          <mxGeometry x="1241" y="80" width="120" height="60" as="geometry" />
        </mxCell>
        <mxCell id="NiQ9IAuzMEzP7QuWft3J-35" value="" style="endArrow=none;html=1;rounded=0;entryX=0.5;entryY=1;entryDx=0;entryDy=0;" edge="1" parent="1" target="NiQ9IAuzMEzP7QuWft3J-34">
          <mxGeometry width="50" height="50" relative="1" as="geometry">
            <mxPoint x="1301" y="180" as="sourcePoint" />
            <mxPoint x="1301" y="160" as="targetPoint" />
          </mxGeometry>
        </mxCell>
        <mxCell id="NiQ9IAuzMEzP7QuWft3J-37" style="edgeStyle=orthogonalEdgeStyle;rounded=0;orthogonalLoop=1;jettySize=auto;html=1;" edge="1" parent="1" source="NiQ9IAuzMEzP7QuWft3J-36">
          <mxGeometry relative="1" as="geometry">
            <mxPoint x="1301" y="290" as="targetPoint" />
          </mxGeometry>
        </mxCell>
        <mxCell id="NiQ9IAuzMEzP7QuWft3J-36" value="зайти в магазин" style="rounded=0;whiteSpace=wrap;html=1;" vertex="1" parent="1">
          <mxGeometry x="1241" y="180" width="120" height="60" as="geometry" />
        </mxCell>
        <mxCell id="NiQ9IAuzMEzP7QuWft3J-41" style="edgeStyle=orthogonalEdgeStyle;rounded=0;orthogonalLoop=1;jettySize=auto;html=1;entryX=0.5;entryY=0;entryDx=0;entryDy=0;" edge="1" parent="1" source="NiQ9IAuzMEzP7QuWft3J-38" target="NiQ9IAuzMEzP7QuWft3J-40">
          <mxGeometry relative="1" as="geometry" />
        </mxCell>
        <mxCell id="NiQ9IAuzMEzP7QuWft3J-38" value="спросить есть ли шины нужного размера" style="rounded=0;whiteSpace=wrap;html=1;" vertex="1" parent="1">
          <mxGeometry x="1241" y="290" width="120" height="60" as="geometry" />
        </mxCell>
        <mxCell id="NiQ9IAuzMEzP7QuWft3J-44" style="edgeStyle=orthogonalEdgeStyle;rounded=0;orthogonalLoop=1;jettySize=auto;html=1;" edge="1" parent="1" source="NiQ9IAuzMEzP7QuWft3J-40">
          <mxGeometry relative="1" as="geometry">
            <mxPoint x="1380" y="500" as="targetPoint" />
          </mxGeometry>
        </mxCell>
        <mxCell id="NiQ9IAuzMEzP7QuWft3J-45" style="edgeStyle=orthogonalEdgeStyle;rounded=0;orthogonalLoop=1;jettySize=auto;html=1;" edge="1" parent="1" source="NiQ9IAuzMEzP7QuWft3J-40">
          <mxGeometry relative="1" as="geometry">
            <mxPoint x="1220" y="500" as="targetPoint" />
          </mxGeometry>
        </mxCell>
        <mxCell id="NiQ9IAuzMEzP7QuWft3J-40" value="есть шины/нету шин" style="rhombus;whiteSpace=wrap;html=1;" vertex="1" parent="1">
          <mxGeometry x="1256.5" y="385" width="89" height="90" as="geometry" />
        </mxCell>
        <mxCell id="NiQ9IAuzMEzP7QuWft3J-48" style="edgeStyle=orthogonalEdgeStyle;rounded=0;orthogonalLoop=1;jettySize=auto;html=1;" edge="1" parent="1" source="NiQ9IAuzMEzP7QuWft3J-46">
          <mxGeometry relative="1" as="geometry">
            <mxPoint x="1220" y="620" as="targetPoint" />
          </mxGeometry>
        </mxCell>
        <mxCell id="NiQ9IAuzMEzP7QuWft3J-46" value="шины есть" style="rounded=0;whiteSpace=wrap;html=1;" vertex="1" parent="1">
          <mxGeometry x="1160" y="500" width="120" height="60" as="geometry" />
        </mxCell>
        <mxCell id="NiQ9IAuzMEzP7QuWft3J-50" style="edgeStyle=orthogonalEdgeStyle;rounded=0;orthogonalLoop=1;jettySize=auto;html=1;" edge="1" parent="1" source="NiQ9IAuzMEzP7QuWft3J-47">
          <mxGeometry relative="1" as="geometry">
            <mxPoint x="1380" y="620" as="targetPoint" />
          </mxGeometry>
        </mxCell>
        <mxCell id="NiQ9IAuzMEzP7QuWft3J-47" value="шин нету" style="rounded=0;whiteSpace=wrap;html=1;" vertex="1" parent="1">
          <mxGeometry x="1320" y="500" width="120" height="60" as="geometry" />
        </mxCell>
        <mxCell id="NiQ9IAuzMEzP7QuWft3J-49" value="берешь их" style="rounded=0;whiteSpace=wrap;html=1;" vertex="1" parent="1">
          <mxGeometry x="1160" y="620" width="120" height="60" as="geometry" />
        </mxCell>
        <mxCell id="NiQ9IAuzMEzP7QuWft3J-51" value="едешь в другой магазин" style="rounded=0;whiteSpace=wrap;html=1;" vertex="1" parent="1">
          <mxGeometry x="1320" y="620" width="120" height="60" as="geometry" />
        </mxCell>
        <mxCell id="NiQ9IAuzMEzP7QuWft3J-57" value="" style="endArrow=classic;html=1;rounded=0;exitX=0.5;exitY=1;exitDx=0;exitDy=0;" edge="1" parent="1" source="NiQ9IAuzMEzP7QuWft3J-49">
          <mxGeometry width="50" height="50" relative="1" as="geometry">
            <mxPoint x="1270" y="760" as="sourcePoint" />
            <mxPoint x="1260" y="800" as="targetPoint" />
            <Array as="points">
              <mxPoint x="1220" y="800" />
            </Array>
          </mxGeometry>
        </mxCell>
        <mxCell id="NiQ9IAuzMEzP7QuWft3J-58" value="" style="endArrow=classic;html=1;rounded=0;exitX=0.508;exitY=1.056;exitDx=0;exitDy=0;exitPerimeter=0;" edge="1" parent="1" source="NiQ9IAuzMEzP7QuWft3J-51">
          <mxGeometry width="50" height="50" relative="1" as="geometry">
            <mxPoint x="1370" y="750" as="sourcePoint" />
            <mxPoint x="1350" y="800" as="targetPoint" />
            <Array as="points">
              <mxPoint x="1380" y="800" />
            </Array>
          </mxGeometry>
        </mxCell>
        <mxCell id="NiQ9IAuzMEzP7QuWft3J-62" style="edgeStyle=orthogonalEdgeStyle;rounded=0;orthogonalLoop=1;jettySize=auto;html=1;entryX=0.5;entryY=0;entryDx=0;entryDy=0;" edge="1" parent="1" source="NiQ9IAuzMEzP7QuWft3J-60" target="NiQ9IAuzMEzP7QuWft3J-61">
          <mxGeometry relative="1" as="geometry" />
        </mxCell>
        <mxCell id="NiQ9IAuzMEzP7QuWft3J-60" value="купить шины" style="rounded=0;whiteSpace=wrap;html=1;" vertex="1" parent="1">
          <mxGeometry x="1256.5" y="780" width="93.5" height="40" as="geometry" />
        </mxCell>
        <mxCell id="NiQ9IAuzMEzP7QuWft3J-61" value="конец" style="rounded=1;whiteSpace=wrap;html=1;" vertex="1" parent="1">
          <mxGeometry x="1241" y="850" width="120" height="60" as="geometry" />
        </mxCell>
        <mxCell id="NiQ9IAuzMEzP7QuWft3J-64" value="начало" style="rounded=1;whiteSpace=wrap;html=1;" vertex="1" parent="1">
          <mxGeometry x="1650" y="80" width="120" height="60" as="geometry" />
        </mxCell>
        <mxCell id="NiQ9IAuzMEzP7QuWft3J-65" value="" style="endArrow=none;html=1;rounded=0;" edge="1" parent="1">
          <mxGeometry width="50" height="50" relative="1" as="geometry">
            <mxPoint x="1710" y="200" as="sourcePoint" />
            <mxPoint x="1710" y="140" as="targetPoint" />
          </mxGeometry>
        </mxCell>
        <mxCell id="NiQ9IAuzMEzP7QuWft3J-92" style="edgeStyle=orthogonalEdgeStyle;rounded=0;orthogonalLoop=1;jettySize=auto;html=1;entryX=0.5;entryY=0;entryDx=0;entryDy=0;" edge="1" parent="1" source="NiQ9IAuzMEzP7QuWft3J-66" target="NiQ9IAuzMEzP7QuWft3J-74">
          <mxGeometry relative="1" as="geometry" />
        </mxCell>
        <mxCell id="NiQ9IAuzMEzP7QuWft3J-66" value="идея" style="rounded=0;whiteSpace=wrap;html=1;" vertex="1" parent="1">
          <mxGeometry x="1650" y="200" width="120" height="60" as="geometry" />
        </mxCell>
        <mxCell id="NiQ9IAuzMEzP7QuWft3J-85" style="edgeStyle=orthogonalEdgeStyle;rounded=0;orthogonalLoop=1;jettySize=auto;html=1;" edge="1" parent="1" source="NiQ9IAuzMEzP7QuWft3J-72">
          <mxGeometry relative="1" as="geometry">
            <mxPoint x="1694" y="630" as="targetPoint" />
          </mxGeometry>
        </mxCell>
        <mxCell id="NiQ9IAuzMEzP7QuWft3J-72" value="построение сюжета" style="rounded=0;whiteSpace=wrap;html=1;" vertex="1" parent="1">
          <mxGeometry x="1634" y="500" width="120" height="60" as="geometry" />
        </mxCell>
        <mxCell id="NiQ9IAuzMEzP7QuWft3J-74" value="разработка персонажей" style="rhombus;whiteSpace=wrap;html=1;" vertex="1" parent="1">
          <mxGeometry x="1670" y="290" width="80" height="80" as="geometry" />
        </mxCell>
        <mxCell id="NiQ9IAuzMEzP7QuWft3J-77" value="положительные" style="rounded=0;whiteSpace=wrap;html=1;" vertex="1" parent="1">
          <mxGeometry x="1560" y="400" width="120" height="60" as="geometry" />
        </mxCell>
        <mxCell id="NiQ9IAuzMEzP7QuWft3J-83" style="edgeStyle=orthogonalEdgeStyle;rounded=0;orthogonalLoop=1;jettySize=auto;html=1;entryX=1;entryY=0.836;entryDx=0;entryDy=0;entryPerimeter=0;" edge="1" parent="1" source="NiQ9IAuzMEzP7QuWft3J-78" target="NiQ9IAuzMEzP7QuWft3J-72">
          <mxGeometry relative="1" as="geometry">
            <mxPoint x="1760" y="550" as="targetPoint" />
            <Array as="points">
              <mxPoint x="1780" y="550" />
            </Array>
          </mxGeometry>
        </mxCell>
        <mxCell id="NiQ9IAuzMEzP7QuWft3J-78" value="отрицательные" style="rounded=0;whiteSpace=wrap;html=1;" vertex="1" parent="1">
          <mxGeometry x="1720" y="400" width="120" height="60" as="geometry" />
        </mxCell>
        <mxCell id="NiQ9IAuzMEzP7QuWft3J-88" style="edgeStyle=orthogonalEdgeStyle;rounded=0;orthogonalLoop=1;jettySize=auto;html=1;" edge="1" parent="1" source="NiQ9IAuzMEzP7QuWft3J-86">
          <mxGeometry relative="1" as="geometry">
            <mxPoint x="1694" y="760" as="targetPoint" />
          </mxGeometry>
        </mxCell>
        <mxCell id="NiQ9IAuzMEzP7QuWft3J-86" value="написание романа на черновик" style="rounded=0;whiteSpace=wrap;html=1;" vertex="1" parent="1">
          <mxGeometry x="1634" y="630" width="120" height="60" as="geometry" />
        </mxCell>
        <mxCell id="NiQ9IAuzMEzP7QuWft3J-90" style="edgeStyle=orthogonalEdgeStyle;rounded=0;orthogonalLoop=1;jettySize=auto;html=1;" edge="1" parent="1" source="NiQ9IAuzMEzP7QuWft3J-89">
          <mxGeometry relative="1" as="geometry">
            <mxPoint x="1694" y="870" as="targetPoint" />
          </mxGeometry>
        </mxCell>
        <mxCell id="NiQ9IAuzMEzP7QuWft3J-89" value="опубликовать роман" style="rounded=0;whiteSpace=wrap;html=1;" vertex="1" parent="1">
          <mxGeometry x="1634" y="760" width="120" height="60" as="geometry" />
        </mxCell>
        <mxCell id="NiQ9IAuzMEzP7QuWft3J-91" value="конец" style="rounded=0;whiteSpace=wrap;html=1;" vertex="1" parent="1">
          <mxGeometry x="1634" y="870" width="120" height="60" as="geometry" />
        </mxCell>
        <mxCell id="NiQ9IAuzMEzP7QuWft3J-95" value="" style="endArrow=classic;html=1;rounded=0;entryX=0.5;entryY=0;entryDx=0;entryDy=0;exitX=0;exitY=0.5;exitDx=0;exitDy=0;" edge="1" parent="1" source="NiQ9IAuzMEzP7QuWft3J-74" target="NiQ9IAuzMEzP7QuWft3J-77">
          <mxGeometry width="50" height="50" relative="1" as="geometry">
            <mxPoint x="1610" y="320" as="sourcePoint" />
            <mxPoint x="1650" y="320" as="targetPoint" />
            <Array as="points">
              <mxPoint x="1620" y="330" />
            </Array>
          </mxGeometry>
        </mxCell>
        <mxCell id="NiQ9IAuzMEzP7QuWft3J-96" value="" style="endArrow=classic;html=1;rounded=0;entryX=0.667;entryY=0;entryDx=0;entryDy=0;entryPerimeter=0;exitX=1;exitY=0.5;exitDx=0;exitDy=0;" edge="1" parent="1" source="NiQ9IAuzMEzP7QuWft3J-74" target="NiQ9IAuzMEzP7QuWft3J-78">
          <mxGeometry width="50" height="50" relative="1" as="geometry">
            <mxPoint x="1770" y="360" as="sourcePoint" />
            <mxPoint x="1820" y="310" as="targetPoint" />
            <Array as="points">
              <mxPoint x="1800" y="330" />
            </Array>
          </mxGeometry>
        </mxCell>
        <mxCell id="NiQ9IAuzMEzP7QuWft3J-97" value="" style="endArrow=classic;html=1;rounded=0;entryX=0.002;entryY=0.827;entryDx=0;entryDy=0;exitX=0.333;exitY=1;exitDx=0;exitDy=0;exitPerimeter=0;entryPerimeter=0;" edge="1" parent="1" source="NiQ9IAuzMEzP7QuWft3J-77" target="NiQ9IAuzMEzP7QuWft3J-72">
          <mxGeometry width="50" height="50" relative="1" as="geometry">
            <mxPoint x="1560" y="530" as="sourcePoint" />
            <mxPoint x="1610" y="480" as="targetPoint" />
            <Array as="points">
              <mxPoint x="1610" y="460" />
              <mxPoint x="1610" y="550" />
            </Array>
          </mxGeometry>
        </mxCell>
        <mxCell id="NiQ9IAuzMEzP7QuWft3J-98" value="начало" style="rounded=1;whiteSpace=wrap;html=1;" vertex="1" parent="1">
          <mxGeometry x="2230" y="80" width="120" height="60" as="geometry" />
        </mxCell>
        <mxCell id="NiQ9IAuzMEzP7QuWft3J-99" value="" style="endArrow=none;html=1;rounded=0;" edge="1" parent="1">
          <mxGeometry width="50" height="50" relative="1" as="geometry">
            <mxPoint x="2290" y="190" as="sourcePoint" />
            <mxPoint x="2290" y="140" as="targetPoint" />
          </mxGeometry>
        </mxCell>
        <mxCell id="NiQ9IAuzMEzP7QuWft3J-102" style="edgeStyle=orthogonalEdgeStyle;rounded=0;orthogonalLoop=1;jettySize=auto;html=1;entryX=0.5;entryY=0;entryDx=0;entryDy=0;" edge="1" parent="1" source="NiQ9IAuzMEzP7QuWft3J-100" target="NiQ9IAuzMEzP7QuWft3J-101">
          <mxGeometry relative="1" as="geometry" />
        </mxCell>
        <mxCell id="NiQ9IAuzMEzP7QuWft3J-100" value="подготовка&lt;div&gt;&lt;br&gt;&lt;/div&gt;" style="rounded=0;whiteSpace=wrap;html=1;" vertex="1" parent="1">
          <mxGeometry x="2230" y="190" width="120" height="60" as="geometry" />
        </mxCell>
        <mxCell id="NiQ9IAuzMEzP7QuWft3J-104" style="edgeStyle=orthogonalEdgeStyle;rounded=0;orthogonalLoop=1;jettySize=auto;html=1;entryX=0.5;entryY=0;entryDx=0;entryDy=0;" edge="1" parent="1" source="NiQ9IAuzMEzP7QuWft3J-101" target="NiQ9IAuzMEzP7QuWft3J-103">
          <mxGeometry relative="1" as="geometry" />
        </mxCell>
        <mxCell id="NiQ9IAuzMEzP7QuWft3J-101" value="снять старую дверь" style="rounded=0;whiteSpace=wrap;html=1;" vertex="1" parent="1">
          <mxGeometry x="2230" y="270" width="120" height="60" as="geometry" />
        </mxCell>
        <mxCell id="NiQ9IAuzMEzP7QuWft3J-103" value="" style="rounded=0;whiteSpace=wrap;html=1;" vertex="1" parent="1">
          <mxGeometry x="2230" y="350" width="120" height="60" as="geometry" />
        </mxCell>
      </root>
    </mxGraphModel>
  </diagram>
</mxfile>
